<?xml version="1.0" encoding="UTF-8"?>
<svg viewBox="0 0 451.94 286.82001" xmlns="http://www.w3.org/2000/svg" xmlns:xlink="http://www.w3.org/1999/xlink">
 <defs>
  <filter id="p" x="-.05001" y="-.13919" width="1.1" height="1.2784">
   <feGaussianBlur stdDeviation="8.433"/>
  </filter>
  <linearGradient id="a">
   <stop stop-color="#1a1a1a" offset="0"/>
   <stop stop-color="#1a1a1a" stop-opacity="0" offset="1"/>
  </linearGradient>
  <linearGradient id="b">
   <stop offset="0"/>
   <stop stop-opacity="0" offset="1"/>
  </linearGradient>
  <linearGradient id="c">
   <stop stop-color="#808080" offset="0"/>
   <stop stop-color="#808080" stop-opacity="0" offset="1"/>
  </linearGradient>
  <linearGradient id="d">
   <stop stop-color="#b3b3b3" offset="0"/>
   <stop stop-color="#b3b3b3" stop-opacity="0" offset="1"/>
  </linearGradient>
  <linearGradient id="o" x1="352.91" x2="340.43" y1="437.1" y2="469.55" gradientUnits="userSpaceOnUse" xlink:href="#a"/>
  <linearGradient id="n" x1="460.16" x2="393.06" y1="353.87" y2="307.44" gradientUnits="userSpaceOnUse" xlink:href="#d"/>
  <linearGradient id="m" x1="418.06" x2="504.84" gradientUnits="userSpaceOnUse" xlink:href="#a"/>
  <linearGradient id="l" x1="410.72" x2="359.99" y1="429.92" y2="382.77" gradientUnits="userSpaceOnUse" xlink:href="#d"/>
  <linearGradient id="k" x1="410.36" x2="361.07" y1="464.9" y2="501.01" gradientUnits="userSpaceOnUse" xlink:href="#a"/>
  <linearGradient id="j" x1="314" x2="300.84" y1="472.88" y2="517.34" gradientUnits="userSpaceOnUse" xlink:href="#b"/>
  <linearGradient id="i" x1="314.34" x2="300.41" y1="472.58" y2="516.51" gradientUnits="userSpaceOnUse" xlink:href="#b"/>
  <radialGradient id="h" cx="429.14" cy="568.7" r="78.926" gradientTransform="matrix(.84981 .34946 -.13032 .31691 -7.3454 142.83)" gradientUnits="userSpaceOnUse">
   <stop stop-color="#e6e6e6" offset="0"/>
   <stop stop-color="#e6e6e6" stop-opacity="0" offset="1"/>
  </radialGradient>
  <radialGradient id="g" cx="532.37" cy="677.43" r="187.97" gradientTransform="matrix(2.2013 .59826 -.020193 .074297 -772.76 20.267)" gradientUnits="userSpaceOnUse">
   <stop stop-color="#fff" offset="0"/>
   <stop stop-color="#fff" stop-opacity="0" offset="1"/>
  </radialGradient>
  <radialGradient id="f" cx="714.6" cy="322.9" r="41.133" gradientTransform="matrix(.060952 .059075 -1.2608 1.3008 899.62 -64.554)" gradientUnits="userSpaceOnUse" xlink:href="#c"/>
  <radialGradient id="e" cx="651.91" cy="488.32" r="45.038" gradientTransform="matrix(.56781 .15795 -.071569 .25728 174.89 193.96)" gradientUnits="userSpaceOnUse" xlink:href="#c"/>
 </defs>
 <g transform="translate(-163.61 -273.79)" fill-rule="evenodd">
  <path d="m213.86 404.7c-0.02709 0.59509 0.00354 1.2095 0.15625 1.8125l0.15625 0.5c0.01372 0.04139 0.01674 0.08355 0.03125 0.125 0.56333 1.8132 7.224 23.035 10.031 25.281 5.3415 4.2732 9.3329 6.4249 12.562 7.2812-16.651 5.7116-32.931 11.691-35.844 13.562-0.18135 0.11648-0.30016 0.22907-0.375 0.3125s-0.1004 0.13929-0.0625 0.1875c-0.07582-0.09645-0.15265-0.16204-0.21875-0.1875-0.99153-0.38191-0.90625 6.75-0.90625 6.75 2.1842 1.9933 6.1748 4.6974 11.562 7.875-14.824 5.2735-27.879 10.765-27.844 13.219 0.22427 14.896 112.17 62.879 157.47 68.688 1.7746-0.03351 5.8155-1.5665 11.25-4.0312 1.8115-0.82161 3.7934-1.7416 5.875-2.75 19.718-9.5517 47.576-25.201 59.469-31.938 0.00398 0.10089 0.0625 1.1875 0.0625 1.1875 23.159 7.467 77.197 19.101 85.719 16.844 6.6572-0.60031 75.628-56.895 77.469-63.469 1.1116-3.9702 2.3034-13.59 2.6875-24.188 2.0127-2.158 3.2242-3.8204 3.3125-4.7188 0.43639-4.4402 0.89535-8.6413 1.375-12.719l-373.94-19.625zm290.78 82.344h0.03125c-0.02797 0.04519-0.06536 0.08015-0.09375 0.125 0.02003-0.04266 0.04275-0.08213 0.0625-0.125zm-87.719 18.062c0.00646 0.16378 0.02502 0.24809 0.03125 0.40625-0.42718-0.10027-0.69792-0.14103-1.1562-0.25 0.31781-0.00213 0.69479-0.07077 1.125-0.15625z" filter="url(#p)"/>
  <path d="m403.82 456.3c17.533 6.1155 32.587 8.9343 38.876 15.437 0 0-20.535 11.333-25.207 11.081l-36.735-12.69c0.05456-3.625 23.066-13.828 23.066-13.828z"/>
  <path d="m215.92 384.06c10.146 15.965 39.295 23.802 39.295 23.802l0.10998 5.0198c-8.5214 2.2568-11.669 11.126-29.197-2.8963-2.9297-2.3438-10.208-25.925-10.208-25.925z" fill="#333"/>
  <path d="m274.49 376.98c14.918 9.7367 161.17 52.142 169.21 52.856 0 0 3.8222 37.316-5.6421 37.494-51.105 0-179.03-50.785-183.14-56.009-1.2129-1.5427 4.3948-30.591 19.573-34.341z"/>
  <path d="m221.3 375.6c-7.2137 14.974 34.549 31.142 34.549 31.142s-0.53473 0.52633-0.81154 1.1724c-7.2119-1.1876-53.673-19.826-34.883-31.817 0.82891-0.72137 1.1458-0.49794 1.1458-0.49794z" fill="#e6e6e6"/>
  <path d="m297.85 284.29c-16.964 0.98213-71.366 32.214-85.92 56.143-2.9553 4.5245 5.3428 23.417 8.4286 35.049 8.175 3.3283 57.484-26.666 59.987-33.018-1e-5 -1e-5 21.72-57.172 17.504-58.174z" fill="#4d4d4d"/>
  <path d="m250.5 433.94c14.918 9.7367 168.01 50.06 176.04 50.774 0 0-74.62 42.756-84.085 42.935-45.297-5.8084-157.24-53.793-157.47-68.689-0.06986-4.8183 50.328-21.27 65.507-25.02z" fill="#999"/>
  <path d="m250.5 433.94c14.918 9.7367 168.01 50.06 176.04 50.774 0 0-74.62 42.756-84.085 42.935-45.297-5.8084-157.24-53.793-157.47-68.689-0.06986-4.8183 50.328-21.27 65.507-25.02z" fill="url(#i)"/>
  <path d="m256.81 434.69c14.918 9.7367 157.4 43.999 165.44 44.713 0 0-70.327 43.261-79.792 43.44-45.297-5.8084-149.38-50.32-153.74-63.625-0.61106-1.8649 52.917-20.779 68.096-24.529z" fill="#999" stroke="#000" stroke-linecap="round" stroke-linejoin="round" stroke-width="1.2"/>
  <path d="m256.81 434.69c14.918 9.7367 157.4 43.999 165.44 44.713 0 0-70.327 43.261-79.792 43.44-45.297-5.8084-149.38-50.32-153.74-63.625-0.61106-1.8649 52.917-20.779 68.096-24.529z" fill="url(#j)" stroke="#000" stroke-linecap="round" stroke-linejoin="round" stroke-width="1.2"/>
  <path d="m297.83 284.32c1.942-0.655 213.7 37.375 290.94 56.451-4.2188 1.6518-77.812 66.138-81.652 82.656 0 0-282.68-77.5-294.11-81.071 0.48183-6.4594 41.429-44.554 84.821-58.036z" fill="#ccc"/>
  <path d="m221.38 375.52c-10.853 7.0745-3.6373 17.048 34.469 31.219l13.844-16.062c-13.461-6.5486-48.312-15.156-48.312-15.156z" fill="#4d4d4d"/>
  <path d="m418.95 466.98s-51.686 32.588-60.614 31.784l0.78652-10.006c17.466-13.571 58.261-31.959 61.013-30.92 1.3702 0.51751-1.1856 9.141-1.1856 9.141z" fill="#999"/>
  <path d="m221.05 375.57c0.97099-0.3275 39.329 11.762 48.795 15.157l-0.6111-7.937c1.094-0.98946 160.57 46.571 162.85 50.288 0.87119 1.4214 0.46743 7.8787 0.46743 7.8787 28.984 8.7308 54.859 18.898 74.169 23.666-0.25768-8.0326-1.2946-31.106 0.40179-41.196 0 0-282.32-77.857-294.11-81.071-0.99139 7.6478 2.9464 13.214 8.0357 33.214z" fill="#ccc"/>
  <path d="m584.38 397.61c-58.571 45.089-74.935 71.633-82.133 76.689-0.9017 24.346 2.588 32.673 2.588 32.673 6.6572-0.6003 75.646-56.89 77.487-63.464 1.875-6.6964 3.9524-29.449 2.058-45.897z" fill="#333"/>
  <path d="m591.12 339.96c-14.652 1.8081-79.402 72.419-83.333 77.774-3.1306 4.2658-1.2589 46.679-1.2589 46.679 2.1929 3.0604 5.3683 4.347 11.481 3.7764 10.058-0.9389 69.656-47.032 70.302-53.607 4.7685-48.519 13.136-75.691 2.8087-74.623z" fill="#1a1a1a"/>
  <path d="m591.12 339.96c-14.652 1.8081-79.402 72.419-83.333 77.774-3.1306 4.2658-1.2589 46.679-1.2589 46.679 2.1929 3.0604 5.3683 4.347 11.481 3.7764 10.058-0.9389 69.656-47.032 70.302-53.607 4.7685-48.519 13.136-75.691 2.8087-74.623z" fill="url(#e)"/>
  <path d="m593.85 343.68c-16.786 4.1964-80.61 73.698-81.188 78.062-1.4068 9.9512-0.28219 43.864 3.25 46.031 8.175 3.3283 69.091-46.398 71.594-52.75-1e-5 -1e-5 8.9957-71.184 6.3438-71.344z" fill="#4d4d4d"/>
  <path d="m418.95 466.98s-51.686 32.588-60.614 31.784l0.78652-10.006c17.466-13.571 58.261-31.959 61.013-30.92 1.3702 0.51751-1.1856 9.141-1.1856 9.141z" fill="url(#k)"/>
  <path d="m221.05 375.57c0.97099-0.3275 39.329 11.762 48.795 15.157l-0.6111-7.937c1.094-0.98946 160.57 46.571 162.85 50.288 0.87119 1.4214 0.46743 7.8787 0.46743 7.8787 28.984 8.7308 54.859 18.898 74.169 23.666-0.25768-8.0326-1.2946-31.106 0.40179-41.196 0 0-282.32-77.857-294.11-81.071-0.99139 7.6478 2.9464 13.214 8.0357 33.214z" fill="url(#l)"/>
  <path d="m579.69 401.39c-1.1537-1.7751 1.4926 3.4886-2.4375 8.8438-3.1306 4.2658-42.955 33.286-42.955 33.286 2.55-0.15387 40.506-27.337 44.272-32.616 1.0328-1.4479 2.5015-7.0606 1.1205-9.5134z" fill="#1a1a1a"/>
  <path d="m418.06 463.4c17.533 6.1155 68.039 22.632 84.207 10.892l2.5722 32.673c-8.5214 2.2568-62.568-9.3901-85.728-16.857l-1.0516-26.707z" fill="#333"/>
  <path d="m418.06 463.4c17.533 6.1155 68.039 22.632 84.207 10.892l2.5722 32.673c-8.5214 2.2568-62.568-9.3901-85.728-16.857l-1.0516-26.707z" fill="url(#m)"/>
  <path transform="translate(-141.81 -71.258)" d="m566,540.53125c-.77169.08663-1.34491.75539-1.3125,1.53125 .07365,1.80427.17833,3.97845.21875,4.96875 .02776.61992.43961,1.15658 1.03125,1.34375l15.53125,4.84375c.44636.1348.93016.05118 1.30538-.22562s.59792-.71436.60087-1.18063c.00706-1.76371.02685-4.05766.03125-5.15625-.00561-.65166-.43716-1.22283-1.0625-1.40625-.806-.23947-4.14018-1.20713-8.28125-2.4375-3.74334-1.1122-6.23828-1.84387-7.5-2.21875-.18173-.05685-.37272-.07808-.5625-.0625z" fill="#808080"/>
  <path d="m593.85 343.68c-16.786 4.1964-80.61 73.698-81.188 78.062-1.4068 9.9512-0.28219 43.864 3.25 46.031 8.175 3.3283 69.091-46.398 71.594-52.75-1e-5 -1e-5 8.9957-71.184 6.3438-71.344z" fill="url(#f)"/>
  <path d="m418.63 461.33c17.533 6.1155 75.086 24.187 87.971 3.2287 0 0 2.909-0.27111 2.8248 2.4392-14.094 27.917-80.914-0.96771-91.291-3.299-1.002-1.8578 0.49516-2.3689 0.49516-2.3689z" fill="#e6e6e6"/>
  <path d="m297.83 284.32c1.942-0.655 214.57 36.905 291.81 55.981-7.3079 1.7189-78.686 66.608-82.525 83.126 0 0-282.68-77.5-294.11-81.071 0.48183-6.4594 46.518-49.911 84.821-58.036z" fill="url(#n)"/>
  <path d="m201.27 437.87c13.311 12.147 92.779 50.802 157.06 60.892l0.78652-10.006c-51.105 0-152.6-52.214-156.71-57.438-1.2129-1.5427-1.1409 6.5517-1.1409 6.5517z" fill="#999"/>
  <path d="m297.13 291.45c-43.393 13.482-83.648 44.46-84.129 50.92-0.9914 7.6478 2.942 13.188 8.0312 33.188 0.97098-0.32751 39.346 11.761 48.812 15.156l-0.625-7.9375c1.094-0.98945 160.57 46.596 162.84 50.312 0.87121 1.4214 0.46875 7.875 0.46875 7.875 28.984 8.7308 54.878 18.887 74.188 23.656-0.25765-8.0325-1.2902-31.098 0.40625-41.188 3.8393-16.518 75.96-80.736 80.179-82.388-77.239-19.076-288.23-50.25-290.17-49.595z" fill="url(#g)"/>
  <path d="m274.49 405.9c14.918 9.7367 137.96 51.07 145.99 51.784 0 0-51.892 30.887-61.356 31.066-51.105 0-152.6-52.214-156.71-57.438-1.2129-1.5427 56.895-21.663 72.073-25.413z" fill="#999"/>
  <path d="m274.49 405.9c14.918 9.7367 137.96 51.07 145.99 51.784 0 0-51.892 30.887-61.356 31.066-51.105 0-152.6-52.214-156.71-57.438-1.2129-1.5427 56.895-21.663 72.073-25.413z" fill="url(#o)"/>
  <path d="m201.27 437.87c13.311 12.147 92.779 50.802 157.06 60.892l0.78652-10.006c-51.105 0-152.6-52.214-156.71-57.438-1.2129-1.5427-1.1409 6.5517-1.1409 6.5517z" fill="url(#h)"/>
  <path d="m374.36 438.19c17.533 6.1155 32.587 8.9343 38.876 15.437 0 0-20.535 11.333-25.207 11.081l-36.735-12.69c0.05456-3.625 23.066-13.828 23.066-13.828z"/>
  <path d="m280.87 390.29 11.216 2.8559-0.0617 2.762-10.996-3.4196-0.15878-2.1983z" fill="#e6e6e6"/>
  <path d="m301.69 396.33 11.216 2.8559-0.0617 2.762-10.996-3.4196-0.15878-2.1983z" fill="#e6e6e6"/>
  <path d="m321.87 402.22 11.216 2.8559-0.0617 2.762-10.996-3.4196-0.15878-2.1983z" fill="#e6e6e6"/>
  <path d="m345.44 409.9 11.216 2.8559-0.0617 2.762-10.996-3.4196-0.15878-2.1983z" fill="#e6e6e6"/>
  <path d="m367.76 416.69 11.216 2.8559-0.0617 2.762-10.996-3.4196-0.15878-2.1983z" fill="#e6e6e6"/>
  <path d="m388.12 422.58 11.216 2.8559-0.0617 2.762-10.996-3.4196-0.15878-2.1983z" fill="#e6e6e6"/>
  <path d="m408.83 429.01 11.216 2.8559-0.0617 2.762-10.996-3.4196-0.15878-2.1983z" fill="#e6e6e6"/>
  <path transform="translate(-141.98 -71.339)" d="m565.8125,540.8125c-.18897-.00371-.37085.07191-.50149.20849s-.19811.32164-.18601.51026c.06489,1.58984.18186,4.81494.21875,5.71875 .01205.29526.21459.54843.5.625l16.21875,5.0625c.20679.06389.43168.02485.60483-.10502s.27361-.33482.27017-.55123c.00634-1.58543.02759-4.99359.03125-5.90625 .00174-.30693-.20362-.57647-.5-.65625-.63731-.18936-4.27826-1.23637-8.53125-2.5-3.97372-1.18065-6.9226-2.07347-7.9375-2.375-.06072-.0192-.12384-.02972-.1875-.03125z" fill="#e6e6e6"/>
  <path d="m225.9 456.57-0.86334-6.7348c6.2839-5.5243 8.9426-4.8662 8.9426-4.8662s57.591 20.716 57.729 22.511-4.5575 6.0767-5.11 6.7672-1.3811 7.3542-1.3811 8.1828-59.731-26.482-59.317-25.86z" fill="#999"/>
  <path d="m225.04 449.84c6.2839-5.5243 8.9426-4.8662 8.9426-4.8662s57.591 20.716 57.729 22.511-4.5575 6.0767-5.11 6.7672l-61.561-24.412z" fill="#808080"/>
  <path d="m234.12 444.42c2.0716 0 60.18 22.442 60.594 23.271s-4.592 4.2468-4.8683 4.7992-1.3163 9.1794-1.6228 9.4603c-0.41432 0.37979-2.8615 0.656-3.0038 0.656-0.55243 0-0.2616-9.3084-0.03452-9.5639 0.27621-0.31074 5.8432-4.153 5.5588-4.8683-0.36313-0.91309-57.142-22.615-57.142-22.615s-3.936 0.10359-8.5626 4.3158c0.39306-1.8007 6.1094-4.9086 9.0805-5.4552z" fill="#1a1a00"/>
  <path d="m232.77 451.79s3.537-3.0556 4.7302-3.0556c0.58695 0 48.752 19.577 48.752 19.577l-0.56359 0.25593s-47.382-18.803-47.946-18.831-4.9718 2.0543-4.9718 2.0543z" fill="#1a1a00"/>
  <path d="m225.9984,379.61755c-.55205.06698-.88212.32831-1.25.53125-.55684.30715-1.16484.72826-1.6875,1.3125s-.87182,1.21701-1.125,1.8125c-.23736.55826-.47882,1.12584-.375,1.9375 .02344.18332.06185.54832.34375.96875 .15111.22538.33181.37204.46875.46875 .06847.04835.14156.10109.1875.125l.0625.03125c.02864.01648.06469.01596.09375.03125 .46293.24353.97816.36186 1.59375.3125 1.33096-.1067 2.6337-.72839 3.59375-1.84375 .30661-.35622.37494-.58719.4375-.75 .08807-.22925.1621-.47857.21875-.71875 .11488-.48702.21776-1.08501.125-1.78125-.08288-.62211-.30231-1.14304-.625-1.59375 .01173.01638-.01171-.0484-.09375-.15625s-.22012-.24561-.40625-.375c-.43042-.29921-.92151-.31118-.9375-.3125-.21777-.018-.43211-.0234-.625,0zm9.75,5c-.40048.04859-.63527.24276-.875.375-.38509.21243-.82309.4989-1.1875.90625-.35768.39981-.60453.83434-.78125,1.25-.1619.38078-.32277.8061-.25,1.375 .01408.11015.04041.40618.25.71875 .10971.16363.24518.27161.34375.34375l.125.09375c.01734.0094.016.02432.03125.03125s.04528-.00913.0625,0l.0625.03125c.01745.00833.04485-.00767.0625,0 .32823.14265.67867.21828 1.0625.1875 .92392-.07406 1.83224-.50547 2.5-1.28125 .21541-.25026.27511-.43394.3125-.53125 .06308-.16421.11796-.33769.15625-.5 .08232-.34892.1261-.77263.0625-1.25-.0568-.4263-.20554-.801-.4375-1.125 .02618.03656.00209-.03689-.0625-.125s-.17442-.18526-.3125-.28125c-.16584-.11527-.30766-.15972-.4375-.1875s-.29227-.03474-.25-.03125c-.14971-.01238-.29872-.01684-.4375,0zm10.03125,3.90625c-.40049.04859-.63528.24277-.875.375-.38507.21242-.82308.49889-1.1875.90625-.36613.40928-.58063.85164-.75,1.25-.15453.36347-.35618.78916-.28125,1.375 .01409.11006.04043.40617.25.71875 .1165.17374.26537.30314.375.375 .05481.03593.08672.04447.125.0625l.0625.03125c.01728.00957.04503-.00888.0625,0l.0625.03125c.32229.14703.67288.21874 1.0625.1875 .92393-.07407 1.83225-.50546 2.5-1.28125 .21543-.25026.27512-.43395.3125-.53125 .06313-.16428.11797-.33774.15625-.5 .07656-.32454.15995-.7532.09375-1.25-.05962-.4476-.24882-.81782-.46875-1.125 .05483.07661.02829.03945-.03125-.0625s-.1669-.24254-.3125-.34375c-.16585-.11529-.30766-.15972-.4375-.1875s-.29227-.03474-.25-.03125c-.1548-.0128-.32025-.01801-.46875,0zm10.125,3.6875c-.42951.05212-.69631.25597-.96875.40625-.413.22782-.88205.52252-1.28125.96875-.39567.44228-.65404.92879-.84375,1.375-.17686.41598-.3609.87736-.28125,1.5 .01232.09637.02366.41243.25.75 .12325.18381.29118.29813.40625.375 .05754.03844.08511.07452.125.09375l.0625.03125c.01633.00933.04593-.00892.0625,0l.0625.03125c.33397.16675.70501.28618 1.15625.25 1.01001-.08096 2.01987-.55799 2.75-1.40625 .23828-.27679.30185-.48469.34375-.59375 .07268-.18911.1174-.36656.15625-.53125 .08629-.36571.16503-.84007.09375-1.375-.06423-.48227-.25863-.88164-.5-1.21875 .0578.08077-.08465-.20441-.375-.40625-.34888-.24255-.73469-.24874-.75-.25-.16278-.01346-.32061-.01797-.46875,0z" fill="#e6e6e6"/>
  <path d="m226.35557,379.79423c-.8032-.0664-1.13797.18285-1.65625.46875s-1.07284.70265-1.5625,1.25-.8234,1.12512-1.0625,1.6875-.43581.99902-.34375,1.71875c.02584.20205.04425.45903.28125.8125s.54248.47561.53125.46875c.43438.26519.87502.36261 1.5.3125 1.23203-.09876 2.42175-.65265 3.3125-1.6875 .27647-.32118.29954-.45986.375-.65625s.13173-.41982.1875-.65625c.11155-.47286.20848-.99843.125-1.625-.07608-.57114-.24551-1.00715-.53125-1.40625-.05993-.08371-.08652-.21524-.40625-.4375s-.69576-.24552-.75-.25z" fill="#b3b3b3"/>
  <path d="m235.91702,384.80376c-.5395-.0446-.76435.12282-1.11247.31485s-.72061.47196-1.0495.8396-.55306.75572-.71366,1.13346-.29273.67103-.23089,1.15445c.01735.13572.02972.30833.18891.54574s.36437.31946.35683.31485c.29176.17813.58773.24356 1.00752.2099 .82753-.06633 1.62664-.43837 2.22494-1.13346 .1857-.21573.20119-.30887.25188-.44079s.08848-.28198.12594-.44079c.07492-.31761.14003-.67062.08396-1.09148-.0511-.38362-.16491-.67648-.35683-.94455-.04026-.05622-.05812-.14457-.27287-.29386s-.46733-.16491-.50376-.16792z" fill="#b3b3b3"/>
  <path d="m245.95936,388.71001c-.53949-.0446-.76435.12282-1.11247.31485s-.7206.47195-1.0495.8396-.55306.75572-.71366,1.13346-.29272.67102-.23089,1.15445c.01736.13571.02973.30832.18891.54574s.36438.31946.35683.31485c.29177.17812.58774.24356 1.00752.2099 .82753-.06634 1.62665-.43837 2.22494-1.13346 .1857-.21573.2012-.30888.25188-.44079s.08848-.28199.12594-.44079c.07493-.31761.14004-.67063.08396-1.09148-.0511-.38362-.1649-.67648-.35683-.94455-.04025-.05623-.05811-.14457-.27287-.29386s-.46732-.16491-.50376-.16792z" fill="#b3b3b3"/>
  <path d="m256.10064,392.38924c-.59377-.04909-.84125.13517-1.22439.34652s-.79311.51944-1.1551.92408-.6087.83175-.78546,1.2475-.32218.73853-.25412,1.2706c.0191.14937.03271.33934.20792.60065s.40103.3516.39273.34652c.32112.19605.64686.26807 1.10889.23102 .91079-.07301 1.7903-.48247 2.44879-1.2475 .20439-.23743.22144-.33995.27722-.48514s.09739-.31035.13862-.48513c.08246-.34957.15412-.7381.0924-1.2013-.05624-.42222-.18149-.74455-.39273-1.03958-.0443-.06189-.06396-.15912-.30032-.32343s-.51435-.1815-.55445-.18481z" fill="#b3b3b3"/>
  <path d="m433.22 440.93-14.719 20.688c58.872 18.723 81.607 17.797 88.219 2.5938 2e-5 1e-5 -31.207-9.6964-73.5-23.281z" fill="#4d4d4d"/>
  <path transform="matrix(.74074 0 0 .74074 -16.866 72.695)" d="m340.97 339.84c-0.53789 0.01775-1.059 0.19146-1.5 0.5l-11.219 7.7188c-0.91305 0.63884-1.3556 1.7617-1.124 2.8517s1.0926 1.9359 2.1865 2.1483l18.062 3.25c0.71828 0.13106 1.4593-0.02612 2.0625-0.4375l11.219-7.7188c0.91305-0.63884 1.3556-1.7617 1.124-2.8517s-1.0926-1.9359-2.1865-2.1483l-18.062-3.25c-0.18488-0.03994-0.37336-0.06088-0.5625-0.0625z" fill="#4d4d4d"/>
  <path transform="matrix(.74074 0 0 .74074 -16.866 71.927)" d="m340.875,341.21875c-.22555.03133-.44007.11714-.625.25l-11.21875,7.71875c-.46555.32052-.69305.88929-.57695,1.44246s.55307.98249 1.1082,1.08879l18.0625,3.25c.35912.06405.72906-.01442 1.03125-.21875l11.21875-7.71875c.46555-.32052.69305-.88929.57695-1.44246s-.55307-.98249-1.1082-1.08879l-18.0625-3.25c-.13317-.03015-.27003-.04068-.40625-.03125z" fill="#e6e6e6"/>
 </g>
</svg>
